<?xml version="1.0" encoding="utf-8"?>
<!-- Generator: Adobe Illustrator 16.0.0, SVG Export Plug-In . SVG Version: 6.00 Build 0)  -->
<!DOCTYPE svg PUBLIC "-//W3C//DTD SVG 1.1//EN" "http://www.w3.org/Graphics/SVG/1.1/DTD/svg11.dtd">
<svg version="1.1" id="Layer_1" xmlns="http://www.w3.org/2000/svg" xmlns:xlink="http://www.w3.org/1999/xlink" x="0px"
     y="0px"
     width="841.89px" height="595.28px" viewBox="0 0 841.89 595.28" enable-background="new 0 0 841.89 595.28"
     xml:space="preserve">
<g>
	<g>
		<path fill-rule="evenodd" clip-rule="evenodd" fill="#FFFFFF" d="M504.835,350.094c-7.979,0.003-15.959-0.1-23.933,0.067
			c-2.251,0.048-3.203-0.782-4.054-2.71c-5.901-13.353-11.902-26.661-17.892-39.973c-8.609-19.128-17.186-38.271-25.907-57.347
			c-1.277-2.791-1.799-5.521-1.724-8.53c0.119-4.811,0.089-9.628-0.001-14.441c-0.028-1.563,0.32-2.194,2.029-2.114
			c3.02,0.14,6.051,0.039,9.077,0.027c15.651-0.061,28.278-12.48,29.876-27.169c1.772-16.307-10.384-31.13-25.54-33.195
			c-4.461-0.608-8.916-0.248-13.372-0.3c-1.621-0.019-2.081-0.444-2.073-2.079c0.062-14.718,0.062-29.436,0-44.154
			c-0.008-1.635,0.452-2.057,2.071-2.073c9.891-0.097,19.709,0.153,29.358,2.827c10.877,3.013,20.656,8.048,29.301,15.245
			c14.858,12.371,24.214,28.116,27.417,47.155c3.103,18.438,0.169,36.029-9.279,52.356c-4.971,8.59-11.271,16.042-19.075,22.19
			c-1.094,0.861-0.839,1.674-0.376,2.695c3.707,8.179,7.391,16.369,11.072,24.561c9.106,20.261,18.209,40.522,27.314,60.783
			c0.674,1.5,1.313,3.021,2.064,4.482c0.735,1.426,0.248,1.725-1.185,1.717C521.616,350.071,513.226,350.093,504.835,350.094z"/>
    <path fill-rule="evenodd" clip-rule="evenodd" fill="#414143" d="M672.165,349.947c-5.789-11.767-11.465-23.262-17.102-34.774
			c-6.51-13.296-12.963-26.622-19.479-39.914c-10.56-21.539-21.159-43.059-31.73-64.593c-14.166-28.856-28.32-57.719-42.479-86.581
			c-1.113-2.272-2.169-4.572-3.326-6.822c-0.539-1.049-0.45-1.421,0.835-1.396c3.232,0.061,6.466,0.017,9.697,0.017
			c13.55,0,27.099,0.03,40.648-0.042c1.616-0.008,2.396,0.499,3.103,1.944c17.088,34.977,34.227,69.929,51.363,104.881
			c10.743,21.911,21.499,43.815,32.246,65.725c1.538,3.135,3.029,6.293,4.614,9.407c0.417,0.82,0.453,1.44-0.012,2.259
			c-9.262,16.349-18.495,32.713-27.739,49.071C672.677,349.354,672.485,349.542,672.165,349.947z"/>
    <path fill-rule="evenodd" clip-rule="evenodd" fill="#414143" d="M54.374,350.094c38.328-78.174,76.502-156.033,114.834-234.212
			c2.427,4.269,4.695,8.235,6.943,12.214c7.014,12.42,14,24.856,21.059,37.25c0.692,1.214,0.739,2.129,0.125,3.374
			c-9.198,18.616-18.357,37.25-27.502,55.893c-17.535,35.747-35.055,71.5-52.578,107.253c-2.776,5.665-5.536,11.339-8.28,17.019
			c-0.385,0.795-0.789,1.241-1.811,1.239C89.697,350.083,72.231,350.094,54.374,350.094z"/>
    <path fill-rule="evenodd" clip-rule="evenodd" fill="#414143" d="M341.292,349.948c0-1.182,0-1.922,0-2.662
			c0-76.13-0.002-152.259,0.005-228.388c0.001-3.135-0.377-2.707,2.754-2.709c14.373-0.014,28.747,0.028,43.12-0.05
			c1.768-0.009,2.104,0.52,2.103,2.181c-0.043,59.625-0.039,119.249-0.022,178.874c0,1.13-0.165,2.029-1.02,2.938
			c-15.347,16.308-30.647,32.657-45.962,48.995C342.091,349.317,341.869,349.466,341.292,349.948z"/>
    <path fill-rule="evenodd" clip-rule="evenodd" fill="#FFFFFF" d="M760.897,115.773c8.318,0,16.638,0.05,24.956-0.037
			c1.903-0.02,1.951,0.444,1.242,2.008c-7.292,16.105-14.536,32.233-21.767,48.367c-6.192,13.818-12.359,27.646-18.51,41.483
			c-0.531,1.196-1.195,1.783-2.621,1.779c-16.773-0.049-33.549-0.054-50.324,0.001c-1.791,0.005-1.676-0.537-1.085-1.843
			c4.576-10.114,9.099-20.252,13.641-30.381c6.924-15.446,13.851-30.892,20.777-46.337c2.019-4.501,4.083-8.983,6.034-13.513
			c0.521-1.21,1.225-1.563,2.494-1.554C744.123,115.797,752.511,115.772,760.897,115.773z"/>
    <path fill-rule="evenodd" clip-rule="evenodd" fill="#FFFFFF" d="M284.889,350.094c-1.046,0-1.791,0-2.536,0
			c-16.437-0.001-32.873-0.032-49.307,0.045c-1.661,0.008-2.408-0.537-3.053-1.984c-6.858-15.407-13.778-30.786-20.682-46.172
			c-5.81-12.947-11.618-25.894-17.429-38.838c-0.759-1.689-1.52-3.377-2.312-5.05c-0.587-1.239-0.291-1.792,1.125-1.609
			c0.271,0.035,0.55,0.004,0.824,0.004c16.368,0,32.735,0.02,49.102-0.032c1.564-0.004,2.425,0.363,3.113,1.912
			c7.118,16.036,14.325,32.033,21.521,48.035c6.327,14.067,12.67,28.129,19.004,42.192
			C284.425,348.963,284.573,349.339,284.889,350.094z"/>
	</g>
</g>
</svg>
