<?xml version="1.0" encoding="utf-8"?>
<!-- Generator: Adobe Illustrator 16.0.0, SVG Export Plug-In . SVG Version: 6.00 Build 0)  -->
<!DOCTYPE svg PUBLIC "-//W3C//DTD SVG 1.1//EN" "http://www.w3.org/Graphics/SVG/1.1/DTD/svg11.dtd">
<svg version="1.1" id="Layer_1" xmlns="http://www.w3.org/2000/svg" xmlns:xlink="http://www.w3.org/1999/xlink" x="0px"
     y="0px"
     width="841.89px" height="595.28px" viewBox="0 0 841.89 595.28" enable-background="new 0 0 841.89 595.28"
     xml:space="preserve">
<g>
	<g>
		<path fill-rule="evenodd" clip-rule="evenodd" fill="#FFFFFF" d="M504.835,350.094c-7.979,0.003-15.959-0.1-23.933,0.067
			c-2.251,0.048-3.203-0.782-4.054-2.71c-5.901-13.353-11.902-26.661-17.892-39.973c-8.609-19.128-17.186-38.271-25.907-57.347
			c-1.277-2.791-1.799-5.521-1.724-8.53c0.119-4.811,0.089-9.628-0.001-14.441c-0.028-1.563,0.32-2.194,2.029-2.114
			c3.02,0.14,6.051,0.039,9.077,0.027c15.651-0.061,28.278-12.48,29.876-27.169c1.772-16.307-10.384-31.13-25.54-33.195
			c-4.461-0.608-8.916-0.248-13.372-0.3c-1.621-0.019-2.081-0.444-2.073-2.079c0.062-14.718,0.062-29.436,0-44.154
			c-0.008-1.635,0.452-2.057,2.071-2.073c9.891-0.097,19.709,0.153,29.358,2.827c10.877,3.013,20.656,8.048,29.301,15.245
			c14.858,12.371,24.214,28.116,27.417,47.155c3.103,18.438,0.169,36.029-9.279,52.356c-4.971,8.59-11.271,16.042-19.075,22.19
			c-1.094,0.861-0.839,1.674-0.376,2.695c3.707,8.179,7.391,16.369,11.072,24.561c9.106,20.261,18.209,40.522,27.314,60.783
			c0.674,1.5,1.313,3.021,2.064,4.482c0.735,1.426,0.248,1.725-1.185,1.717C521.616,350.071,513.226,350.093,504.835,350.094z"/>
    <path fill-rule="evenodd" clip-rule="evenodd" fill="#414143" d="M672.165,349.947c-5.789-11.767-11.465-23.262-17.102-34.774
			c-6.51-13.296-12.963-26.622-19.479-39.914c-10.56-21.539-21.159-43.059-31.73-64.593c-14.166-28.856-28.32-57.719-42.479-86.581
			c-1.113-2.272-2.169-4.572-3.326-6.822c-0.539-1.049-0.45-1.421,0.835-1.396c3.232,0.061,6.466,0.017,9.697,0.017
			c13.55,0,27.099,0.03,40.648-0.042c1.616-0.008,2.396,0.499,3.103,1.944c17.088,34.977,34.227,69.929,51.363,104.881
			c10.743,21.911,21.499,43.815,32.246,65.725c1.538,3.135,3.029,6.293,4.614,9.407c0.417,0.82,0.453,1.44-0.012,2.259
			c-9.262,16.349-18.495,32.713-27.739,49.071C672.677,349.354,672.485,349.542,672.165,349.947z"/>
    <path fill-rule="evenodd" clip-rule="evenodd" fill="#414143" d="M54.374,350.094c38.328-78.174,76.502-156.033,114.834-234.212
			c2.427,4.269,4.695,8.235,6.943,12.214c7.014,12.42,14,24.856,21.059,37.25c0.692,1.214,0.739,2.129,0.125,3.374
			c-9.198,18.616-18.357,37.25-27.502,55.893c-17.535,35.747-35.055,71.5-52.578,107.253c-2.776,5.665-5.536,11.339-8.28,17.019
			c-0.385,0.795-0.789,1.241-1.811,1.239C89.697,350.083,72.231,350.094,54.374,350.094z"/>
    <path fill-rule="evenodd" clip-rule="evenodd" fill="#414143" d="M341.292,349.948c0-1.182,0-1.922,0-2.662
			c0-76.13-0.002-152.259,0.005-228.388c0.001-3.135-0.377-2.707,2.754-2.709c14.373-0.014,28.747,0.028,43.12-0.05
			c1.768-0.009,2.104,0.52,2.103,2.181c-0.043,59.625-0.039,119.249-0.022,178.874c0,1.13-0.165,2.029-1.02,2.938
			c-15.347,16.308-30.647,32.657-45.962,48.995C342.091,349.317,341.869,349.466,341.292,349.948z"/>
    <path fill-rule="evenodd" clip-rule="evenodd" fill="#FFFFFF" d="M760.897,115.773c8.318,0,16.638,0.05,24.956-0.037
			c1.903-0.02,1.951,0.444,1.242,2.008c-7.292,16.105-14.536,32.233-21.767,48.367c-6.192,13.818-12.359,27.646-18.51,41.483
			c-0.531,1.196-1.195,1.783-2.621,1.779c-16.773-0.049-33.549-0.054-50.324,0.001c-1.791,0.005-1.676-0.537-1.085-1.843
			c4.576-10.114,9.099-20.252,13.641-30.381c6.924-15.446,13.851-30.892,20.777-46.337c2.019-4.501,4.083-8.983,6.034-13.513
			c0.521-1.21,1.225-1.563,2.494-1.554C744.123,115.797,752.511,115.772,760.897,115.773z"/>
    <path fill-rule="evenodd" clip-rule="evenodd" fill="#FFFFFF" d="M284.889,350.094c-1.046,0-1.791,0-2.536,0
			c-16.437-0.001-32.873-0.032-49.307,0.045c-1.661,0.008-2.408-0.537-3.053-1.984c-6.858-15.407-13.778-30.786-20.682-46.172
			c-5.81-12.947-11.618-25.894-17.429-38.838c-0.759-1.689-1.52-3.377-2.312-5.05c-0.587-1.239-0.291-1.792,1.125-1.609
			c0.271,0.035,0.55,0.004,0.824,0.004c16.368,0,32.735,0.02,49.102-0.032c1.564-0.004,2.425,0.363,3.113,1.912
			c7.118,16.036,14.325,32.033,21.521,48.035c6.327,14.067,12.67,28.129,19.004,42.192
			C284.425,348.963,284.573,349.339,284.889,350.094z"/>
	</g>
  <path fill-rule="evenodd" clip-rule="evenodd" fill="#414143" d="M423.822,420.999c16.747,0.024,29.313,12.598,29.305,29.321
		c-0.008,16.597-12.983,29.196-30.03,29.159c-16.525-0.035-29.408-12.932-29.231-29.263
		C394.048,433.421,406.81,420.975,423.822,420.999z M442.543,450.256c0.031-11.122-8.041-19.851-18.592-20.105
		c-11.073-0.267-19.678,8.635-19.509,20.179c0.165,11.229,8.314,19.809,18.852,19.849
		C434.483,470.222,442.51,461.915,442.543,450.256z"/>
  <path fill-rule="evenodd" clip-rule="evenodd" fill="#414143" d="M354.896,457.211c5.001,7.017,9.96,13.974,15.161,21.271
		c-4.031,0-7.696,0.002-11.361-0.001c-0.855-0.001-1.088-0.747-1.468-1.284c-3.922-5.546-7.877-11.068-11.713-16.674
		c-0.891-1.304-1.851-1.766-3.384-1.701c-2.744,0.115-5.501,0.113-8.245-0.005c-1.522-0.065-2.007,0.356-1.975,1.937
		c0.101,5.29-0.02,10.584,0.076,15.875c0.028,1.541-0.374,2.015-1.938,1.905c-2.188-0.152-4.397-0.082-6.594-0.01
		c-1.077,0.035-1.576-0.153-1.573-1.413c0.036-17.938,0.034-35.877-0.009-53.815c-0.002-1.257,0.484-1.422,1.559-1.418
		c8.109,0.037,16.22-0.02,24.329,0.038c4.306,0.03,8.479,0.858,12.239,3.05c6.102,3.556,8.417,9.168,8.15,15.958
		c-0.27,6.834-3.539,11.826-9.73,14.822C357.324,456.274,356.172,456.685,354.896,457.211z M331.924,440.521
		c0.009,0,0.016,0,0.023,0c0,2.682-0.002,5.363,0.002,8.043c0.001,0.67-0.174,1.437,0.943,1.397
		c5.626-0.197,11.285,0.495,16.88-0.399c5.273-0.843,8.267-4.422,8.173-9.452c-0.092-4.889-3.185-8.119-8.578-8.781
		c-5.407-0.663-10.847-0.106-16.269-0.293c-1.143-0.039-1.18,0.628-1.178,1.442C331.929,435.159,331.924,437.84,331.924,440.521z"/>
  <path fill-rule="evenodd" clip-rule="evenodd" fill="#414143" d="M280.794,446.843c3.437,0,6.876,0.072,10.311-0.033
		c1.493-0.046,1.839,0.482,1.825,1.884c-0.064,6.807-0.034,13.611-0.034,20.418c0,0.821,0.034,1.572-0.738,2.214
		c-11.301,9.396-28.495,11.124-40.098,3.168c-9.152-6.275-12.732-15.466-12.038-26.224c0.918-14.233,10.475-24.761,24.492-26.916
		c9.059-1.394,17.631,0.275,25.061,6.158c1.125,0.89,1.274,1.424,0.246,2.494c-1.472,1.531-2.854,3.171-4.096,4.893
		c-0.849,1.176-1.419,1.273-2.543,0.313c-3.553-3.034-7.737-4.607-12.391-4.994c-10.385-0.863-19.479,7.036-20.212,17.599
		c-0.535,7.718,1.373,14.487,7.955,19.202c6.345,4.544,17.41,4.332,23.749-0.242c0.692-0.5,0.929-1.068,0.913-1.905
		c-0.047-2.542-0.086-5.09,0.015-7.629c0.05-1.262-0.291-1.642-1.584-1.608c-3.641,0.093-7.289-0.066-10.928,0.077
		c-1.701,0.066-2.115-0.521-1.99-2.08c0.126-1.57,0.121-3.167,0.001-4.739c-0.117-1.539,0.262-2.167,1.979-2.091
		C274.052,446.948,277.426,446.843,280.794,446.843z"/>
  <path fill-rule="evenodd" clip-rule="evenodd" fill="#414143" d="M558.501,450.173c-0.002-8.795,0.039-17.591-0.041-26.386
		c-0.014-1.548,0.381-1.95,1.928-1.93c6.871,0.09,13.744-0.008,20.615,0.054c5.31,0.049,10.283,1.21,14.685,4.449
		c9.276,6.826,9.925,25.604-4.315,31.72c-3.707,1.593-7.593,2.293-11.621,2.272c-3.16-0.016-6.324,0.068-9.481-0.037
		c-1.396-0.047-1.757,0.417-1.739,1.751c0.068,4.877-0.018,9.758,0.062,14.635c0.022,1.426-0.356,1.91-1.836,1.818
		c-2.19-0.134-4.4-0.111-6.593,0.016c-1.43,0.082-1.692-0.48-1.686-1.77C558.526,467.901,558.503,459.038,558.501,450.173z
		 M568.559,441.191c0,2.885,0.007,5.77-0.005,8.654c-0.004,0.805-0.012,1.463,1.144,1.442c4.188-0.077,8.393,0.134,12.564-0.156
		c5.848-0.406,9.825-4.537,9.932-9.857c0.11-5.555-3.35-9.213-9.579-9.992c-4.308-0.539-8.645-0.095-12.966-0.25
		c-1.228-0.045-1.082,0.77-1.086,1.505C568.55,435.421,568.557,438.307,568.559,441.191z"/>
  <path fill-rule="evenodd" clip-rule="evenodd" fill="#414143" d="M480.361,440.466c0-5.638,0.046-11.276-0.032-16.913
		c-0.02-1.374,0.396-1.75,1.723-1.685c2.126,0.106,4.268,0.131,6.391-0.008c1.521-0.1,1.95,0.313,1.938,1.892
		c-0.079,10.106-0.056,20.213-0.033,30.321c0.008,3.617,0.537,7.155,2.557,10.249c3.244,4.967,8.173,6.297,13.668,5.647
		c7.896-0.935,12.128-6.152,12.16-14.653c0.038-10.451,0.055-20.902-0.036-31.354c-0.015-1.755,0.472-2.227,2.164-2.103
		c2.12,0.153,4.261,0.085,6.391,0.018c1.075-0.034,1.575,0.16,1.567,1.422c-0.077,11.206,0.151,22.419-0.178,33.616
		c-0.403,13.791-9.504,22.283-23.293,22.438c-5.395,0.06-10.565-0.652-15.182-3.614c-6.589-4.227-9.261-10.707-9.665-18.16
		c-0.308-5.688-0.061-11.407-0.061-17.114C480.413,440.466,480.388,440.466,480.361,440.466z"/>
</g>
</svg>
